<svg width="26" height="26" viewBox="0 0 26 26" fill="#2563EB" xmlns="http://www.w3.org/2000/svg">
<path fill-rule="evenodd" clip-rule="evenodd" d="M4.85253 1.73332L4.76529 1.73327C4.36931 1.73289 4.02796 1.73257 3.72557 1.80517C2.77488 2.0334 2.0326 2.77568 1.80437 3.72636C1.73177 4.02876 1.7321 4.3701 1.73248 4.76608L1.73253 4.85332V9.01332L1.73248 9.10056C1.7321 9.49654 1.73177 9.8379 1.80437 10.1403C2.0326 11.091 2.77488 11.8332 3.72557 12.0615C4.02796 12.1341 4.36931 12.1338 4.76529 12.1334L4.85253 12.1333H9.01253L9.09977 12.1334C9.49575 12.1338 9.83711 12.1341 10.1395 12.0615C11.0902 11.8332 11.8325 11.091 12.0607 10.1403C12.1333 9.8379 12.133 9.49654 12.1326 9.10056L12.1325 9.01332V4.85332L12.1326 4.76608C12.133 4.3701 12.1333 4.02876 12.0607 3.72636C11.8325 2.77568 11.0902 2.0334 10.1395 1.80517C9.83711 1.73257 9.49575 1.73289 9.09977 1.73327L9.01253 1.73332H4.85253ZM4.13021 3.49061C4.20482 3.47269 4.31904 3.46665 4.85253 3.46665H9.01253C9.54603 3.46665 9.66026 3.47269 9.73484 3.49061C10.0517 3.56668 10.2992 3.8141 10.3753 4.13101C10.3932 4.20561 10.3992 4.31983 10.3992 4.85332V9.01332C10.3992 9.54682 10.3932 9.66105 10.3753 9.73563C10.2992 10.0525 10.0517 10.3 9.73484 10.376C9.66026 10.394 9.54603 10.4 9.01253 10.4H4.85253C4.31904 10.4 4.20482 10.394 4.13021 10.376C3.81331 10.3 3.56589 10.0525 3.48982 9.73563C3.47189 9.66105 3.46586 9.54682 3.46586 9.01332V4.85332C3.46586 4.31983 3.47189 4.20561 3.48982 4.13101C3.56589 3.8141 3.81331 3.56668 4.13021 3.49061ZM16.9859 1.73332L16.8986 1.73327C16.5026 1.73289 16.1613 1.73257 15.8589 1.80517C14.9082 2.0334 14.1659 2.77568 13.9377 3.72636C13.8651 4.02876 13.8654 4.3701 13.8658 4.76608L13.8659 4.85332V9.01332L13.8658 9.10056C13.8654 9.49654 13.8651 9.8379 13.9377 10.1403C14.1659 11.091 14.9082 11.8332 15.8589 12.0615C16.1613 12.1341 16.5026 12.1338 16.8986 12.1334L16.9859 12.1333H21.1459L21.233 12.1334C21.6291 12.1338 21.9704 12.1341 22.2729 12.0615C23.2234 11.8332 23.9658 11.091 24.1941 10.1403C24.2666 9.8379 24.2664 9.49654 24.2659 9.10056V9.01332V4.85332V4.76608C24.2664 4.3701 24.2666 4.02876 24.1941 3.72636C23.9658 2.77568 23.2234 2.0334 22.2729 1.80517C21.9704 1.73257 21.6291 1.73289 21.233 1.73327L21.1459 1.73332H16.9859ZM16.2635 3.49061C16.3381 3.47269 16.4524 3.46665 16.9859 3.46665H21.1459C21.6794 3.46665 21.7936 3.47269 21.8681 3.49061C22.185 3.56668 22.4325 3.8141 22.5086 4.13101C22.5265 4.20561 22.5325 4.31983 22.5325 4.85332V9.01332C22.5325 9.54682 22.5265 9.66105 22.5086 9.73563C22.4325 10.0525 22.185 10.3 21.8681 10.376C21.7936 10.394 21.6794 10.4 21.1459 10.4H16.9859C16.4524 10.4 16.3381 10.394 16.2635 10.376C15.9466 10.3 15.6992 10.0525 15.6231 9.73563C15.6052 9.66105 15.5992 9.54682 15.5992 9.01332V4.85332C15.5992 4.31983 15.6052 4.20561 15.6231 4.13101C15.6992 3.8141 15.9466 3.56668 16.2635 3.49061ZM4.76529 13.8666L4.85253 13.8667H9.01253L9.09977 13.8666C9.49575 13.8662 9.83711 13.8659 10.1395 13.9385C11.0902 14.1667 11.8325 14.909 12.0607 15.8597C12.1333 16.1621 12.133 16.5034 12.1326 16.8994L12.1325 16.9867V21.1467L12.1326 21.2338C12.133 21.6299 12.1333 21.9712 12.0607 22.2737C11.8325 23.2242 11.0902 23.9666 10.1395 24.1949C9.83711 24.2673 9.49575 24.2672 9.09977 24.2667H9.01253H4.85253H4.76529C4.36931 24.2672 4.02796 24.2673 3.72557 24.1949C2.77488 23.9666 2.0326 23.2242 1.80437 22.2737C1.73177 21.9712 1.7321 21.6299 1.73248 21.2338L1.73253 21.1467V16.9867L1.73248 16.8994C1.7321 16.5034 1.73177 16.1621 1.80437 15.8597C2.0326 14.909 2.77488 14.1667 3.72557 13.9385C4.02796 13.8659 4.36931 13.8662 4.76529 13.8666ZM4.85253 15.6C4.31904 15.6 4.20482 15.606 4.13021 15.6239C3.81331 15.7 3.56589 15.9474 3.48982 16.2643C3.47189 16.3389 3.46586 16.4532 3.46586 16.9867V21.1467C3.46586 21.6802 3.47189 21.7944 3.48982 21.8689C3.56589 22.1858 3.81331 22.4333 4.13021 22.5094C4.20482 22.5273 4.31904 22.5333 4.85253 22.5333H9.01253C9.54603 22.5333 9.66026 22.5273 9.73484 22.5094C10.0517 22.4333 10.2992 22.1858 10.3753 21.8689C10.3932 21.7944 10.3992 21.6802 10.3992 21.1467V16.9867C10.3992 16.4532 10.3932 16.3389 10.3753 16.2643C10.2992 15.9474 10.0517 15.7 9.73484 15.6239C9.66026 15.606 9.54603 15.6 9.01253 15.6H4.85253ZM16.9859 13.8667L16.8986 13.8666C16.5026 13.8662 16.1613 13.8659 15.8589 13.9385C14.9082 14.1667 14.1659 14.909 13.9377 15.8597C13.8651 16.1621 13.8654 16.5034 13.8658 16.8994L13.8659 16.9867V21.1467L13.8658 21.2338C13.8654 21.6299 13.8651 21.9712 13.9377 22.2737C14.1659 23.2242 14.9082 23.9666 15.8589 24.1949C16.1613 24.2673 16.5026 24.2672 16.8986 24.2667H16.9859H21.1459H21.233C21.6291 24.2672 21.9704 24.2673 22.2729 24.1949C23.2234 23.9666 23.9658 23.2242 24.1941 22.2737C24.2666 21.9712 24.2664 21.6299 24.2659 21.2338V21.1467V16.9867V16.8994C24.2664 16.5034 24.2666 16.1621 24.1941 15.8597C23.9658 14.909 23.2234 14.1667 22.2729 13.9385C21.9704 13.8659 21.6291 13.8662 21.233 13.8666L21.1459 13.8667H16.9859ZM16.2635 15.6239C16.3381 15.606 16.4524 15.6 16.9859 15.6H21.1459C21.6794 15.6 21.7936 15.606 21.8681 15.6239C22.185 15.7 22.4325 15.9474 22.5086 16.2643C22.5265 16.3389 22.5325 16.4532 22.5325 16.9867V21.1467C22.5325 21.6802 22.5265 21.7944 22.5086 21.8689C22.4325 22.1858 22.185 22.4333 21.8681 22.5094C21.7936 22.5273 21.6794 22.5333 21.1459 22.5333H16.9859C16.4524 22.5333 16.3381 22.5273 16.2635 22.5094C15.9466 22.4333 15.6992 22.1858 15.6231 21.8689C15.6052 21.7944 15.5992 21.6802 15.5992 21.1467V16.9867C15.5992 16.4532 15.6052 16.3389 15.6231 16.2643C15.6992 15.9474 15.9466 15.7 16.2635 15.6239Z" fill="#2563EB"/>
</svg>
