<svg width="28" height="29" viewBox="0 0 28 29" fill="none" xmlns="http://www.w3.org/2000/svg">
<path d="M3.87008 23.5453C3.69123 23.5972 3.50274 23.6068 3.31953 23.5734C3.13633 23.5399 2.96342 23.4643 2.81448 23.3524C2.66554 23.2406 2.54466 23.0957 2.4614 22.9291C2.37814 22.7625 2.33477 22.5788 2.33474 22.3926L2.33591 15.7286C2.33629 15.5057 2.39864 15.2874 2.51599 15.0979C2.63334 14.9084 2.80107 14.7553 3.00043 14.6557C3.1998 14.5561 3.42294 14.5139 3.64491 14.5338C3.86689 14.5537 4.07896 14.6349 4.25741 14.7684L6.17308 16.2093L11.0497 9.71326C11.3339 9.33521 11.7475 9.07524 12.2114 8.98311C12.6753 8.89098 13.1568 8.97316 13.5639 9.21392L13.7389 9.33059L17.6321 12.2554L22.7864 5.38959C23.2764 4.73626 24.1689 4.56476 24.8596 4.96026L25.0276 5.07109C25.339 5.30508 25.5544 5.6446 25.6335 6.02603C25.7125 6.40746 25.6497 6.80462 25.4569 7.14309L25.3461 7.31109L19.4229 15.2001C19.1389 15.5787 18.725 15.839 18.2608 15.9311C17.7966 16.0233 17.3147 15.9408 16.9076 15.6994L16.7337 15.5828L12.8417 12.6591L8.73274 18.1308L10.6542 19.5739C10.8206 19.6994 10.9514 19.8659 11.034 20.0572C11.1165 20.2484 11.1479 20.4579 11.1251 20.665C11.1023 20.872 11.026 21.0696 10.9038 21.2383C10.7815 21.407 10.6176 21.541 10.4279 21.6273L10.2681 21.6856L3.86891 23.5464L3.87008 23.5453Z" fill="#E63F3F"/>
</svg>
