<svg width="400" height="456" viewBox="0 0 400 456" fill="none" xmlns="http://www.w3.org/2000/svg">
<path d="M181.076 0.618324C180.409 0.88499 178.276 1.41832 176.409 1.81832C174.543 2.21832 169.876 4.88499 166.009 7.68499C162.143 10.6183 156.409 13.685 153.076 14.6183C147.876 16.085 146.143 15.9517 137.476 13.285C132.143 11.685 125.476 9.15166 122.676 7.68499C119.743 6.21832 117.209 5.41832 116.809 5.81832C114.543 7.95166 124.009 20.885 138.409 35.285C145.476 42.2183 152.409 53.1517 152.409 57.285C152.409 59.0183 156.276 60.885 160.409 61.285C166.943 61.8183 167.476 61.5517 166.676 57.285C165.476 51.685 167.876 51.0183 170.943 56.2183C175.343 63.685 175.876 63.9517 186.409 63.9517C195.343 63.9517 196.409 63.685 198.943 60.6183C200.409 58.7517 201.876 55.5517 202.409 53.5517C203.209 49.9517 208.009 43.1517 208.943 44.085C209.343 44.3517 208.943 47.285 208.409 50.6183C206.543 60.2183 206.676 61.285 210.409 61.285C215.609 61.285 220.143 58.6183 221.876 54.2183C222.809 51.9517 227.076 45.4183 231.343 39.685C235.609 33.9517 239.076 28.7517 239.076 28.085C239.076 27.4183 240.009 26.2183 241.209 25.1517C243.343 23.4183 253.743 3.68499 253.743 1.28499C253.743 -0.981677 250.543 -0.181677 245.876 3.15166C240.276 7.28499 225.209 11.9517 217.476 11.9517C213.343 11.9517 208.409 10.3517 200.943 6.75166C190.543 1.68499 183.743 -0.31501 181.076 0.618324Z" fill="#2563eb"/>
<path d="M138.543 68.7515C134.143 73.2849 134.143 75.2849 138.81 79.8182C141.61 82.6182 144.676 83.9515 151.61 85.1515C156.543 86.0849 161.876 87.4182 163.476 88.2182C165.076 89.0182 167.21 90.0849 168.143 90.4849C170.943 91.8182 170.01 93.8182 166.01 95.0182C163.743 95.5515 160.143 95.2849 156.276 93.9515C142.01 89.4182 133.876 89.6849 131.476 94.8849C130.01 98.2182 131.343 103.818 134.143 105.552C138.676 108.352 154.81 111.952 168.41 113.152C187.476 114.752 221.21 112.218 232.41 108.352C241.476 105.152 244.676 100.352 241.61 94.7515C240.01 91.9515 238.543 91.2849 233.743 90.8849C218.143 90.0849 215.61 88.0849 226.81 85.2849C236.41 83.0182 240.41 75.0182 235.61 68.0849C233.743 65.5515 232.543 65.1515 227.876 65.6849C224.943 65.9515 220.676 66.8849 218.41 67.6849C216.276 68.4849 207.743 69.8182 199.476 70.7515C183.876 72.3515 173.076 71.5515 154.143 67.1515C143.21 64.6182 142.676 64.7515 138.543 68.7515Z" fill="#2563eb"/>
<path d="M124.276 120.885C106.543 139.285 79.2094 172.885 68.9428 188.752C48.9428 219.818 41.6094 244.485 43.6094 275.018C44.5428 289.285 45.8761 293.152 52.6761 299.552C62.8094 309.152 74.8094 315.018 95.0761 320.218C108.276 323.552 113.743 324.218 134.409 324.885C161.209 325.818 178.409 324.218 203.076 319.018C211.476 317.152 220.809 315.285 223.743 314.752C234.143 312.752 275.609 299.952 286.409 295.418C288.676 294.485 294.009 292.352 298.409 290.752C302.809 289.018 311.476 285.418 317.743 282.618L329.076 277.685V261.152C329.076 246.618 328.543 243.285 325.209 233.285C315.076 202.618 298.276 176.618 260.676 133.552C247.876 119.018 243.343 114.618 240.809 114.618C236.809 114.618 228.409 118.085 228.409 119.685C228.409 121.285 235.343 137.818 240.009 147.552C243.743 155.418 243.743 158.085 239.743 154.885C236.543 152.218 228.409 141.285 224.809 134.618C216.543 119.685 215.876 119.152 208.409 121.285C205.876 122.085 200.676 122.618 196.943 122.618C188.543 122.618 188.409 123.018 188.409 137.952C188.409 144.085 187.876 149.418 187.209 149.818C185.343 151.018 181.876 141.285 180.809 131.952L179.743 123.418L174.409 121.818C171.476 120.885 166.009 120.085 162.143 120.085L155.343 119.952L149.209 131.418C144.009 141.018 133.743 155.685 127.476 162.218C123.476 166.618 123.476 163.152 127.609 154.885C130.143 149.952 133.876 142.085 135.743 137.285C137.743 132.485 140.276 126.485 141.343 123.952C143.209 119.552 143.209 119.285 140.409 117.018C135.343 112.885 130.943 113.952 124.276 120.885ZM188.409 177.285C189.209 178.752 189.476 181.418 188.943 183.285C187.876 187.685 190.009 190.085 196.009 191.285C203.476 192.618 213.743 198.352 213.743 201.018C213.743 207.285 205.876 214.352 202.543 211.018C200.409 208.885 188.809 205.285 184.009 205.285C178.543 205.285 171.476 208.352 168.809 211.818C167.876 213.018 167.076 215.818 167.076 218.218C167.076 224.618 172.543 228.352 185.876 231.152C206.276 235.552 213.743 240.618 216.409 251.952C217.609 256.885 217.609 260.218 216.409 265.952C214.276 276.218 209.343 281.418 197.743 286.085L188.409 289.685L188.809 294.485C189.476 301.952 187.876 303.952 181.076 303.952C174.676 303.952 174.276 303.418 173.476 293.418C173.076 289.285 172.543 288.752 165.743 286.752C156.943 283.952 150.809 280.885 148.409 277.952C146.943 276.218 146.943 275.152 148.809 271.152C150.009 268.618 152.009 266.218 152.943 265.818C154.009 265.418 158.809 266.618 163.609 268.485C173.609 272.485 187.476 273.152 193.609 269.952C198.143 267.685 201.076 261.285 199.876 256.618C198.676 251.685 192.409 248.618 179.343 246.085C173.076 245.018 165.209 242.618 161.876 241.018C150.143 234.885 146.409 219.818 152.943 205.685C156.409 198.485 159.876 195.418 168.143 192.618C172.809 191.018 173.076 190.618 173.476 184.485C174.009 176.352 175.476 174.618 181.876 174.618C185.609 174.618 187.343 175.285 188.409 177.285Z" fill="#2563eb"/>
<path d="M26.2762 260.352C18.8095 268.885 8.00952 289.285 2.94286 303.952C0.542855 311.018 0.00952202 315.685 0.00952202 328.618C-0.123811 346.218 1.07619 351.685 7.87619 366.352C12.4095 376.485 25.2095 393.818 35.0762 403.552C51.3429 419.418 80.2762 435.685 107.076 443.818C116.41 446.618 144.143 451.685 159.743 453.418C203.476 458.352 273.476 452.352 325.743 439.285C329.743 438.218 339.343 435.818 347.076 433.952C354.81 432.085 369.61 427.685 380.143 424.352C397.61 418.618 399.076 417.952 399.076 415.018C399.076 411.952 397.743 406.752 391.743 385.952C388.543 374.752 383.61 357.018 381.076 347.952C379.876 343.152 377.343 334.485 375.743 328.618C374.01 322.752 371.076 311.952 369.076 304.618C363.21 283.018 362.543 281.285 360.41 281.285C358.81 281.285 332.543 292.618 310.41 302.752C304.01 305.685 253.876 323.018 244.81 325.418C242.41 326.085 238.143 327.285 235.476 327.952C198.41 337.818 145.61 343.418 119.743 340.085C94.1429 336.885 72.8095 331.285 62.8095 325.285C60.4095 323.818 56.0095 321.418 53.2095 319.818C46.2762 316.085 35.2095 304.885 30.4095 296.752C25.6095 288.618 24.2762 273.418 27.6095 263.952C28.6762 260.752 29.4762 257.818 29.2095 257.685C29.0762 257.418 27.7429 258.618 26.2762 260.352ZM352.943 300.218C354.81 303.018 356.676 309.152 363.076 331.952C364.41 336.752 367.076 346.352 369.076 353.285C371.076 360.218 373.476 368.885 374.41 372.618C375.343 376.218 377.476 384.085 379.076 389.952C383.21 404.618 383.61 408.485 381.476 410.218C380.543 411.018 372.81 413.685 364.41 415.952C356.01 418.218 344.943 421.418 339.743 422.752C334.676 424.218 325.876 426.218 320.41 427.418C314.943 428.485 308.676 429.952 306.41 430.618C292.81 434.618 242.676 441.018 213.076 442.752C186.943 444.085 167.61 443.285 145.743 439.818C116.276 435.152 98.4095 429.685 78.4095 419.152C62.9429 411.018 54.9429 405.285 44.8095 395.285C36.5429 387.152 33.0762 381.152 39.6095 386.218C41.3429 387.552 46.0095 391.152 50.0095 394.352C71.8762 411.152 96.4095 421.152 132.41 427.552C151.876 431.018 155.343 431.152 191.743 431.152C220.81 431.152 234.943 430.618 248.41 428.885C274.143 425.552 327.343 415.285 338.276 411.685C343.61 409.952 343.61 409.818 345.076 400.752C346.676 391.418 349.076 387.818 357.076 383.152C359.476 381.818 359.476 381.418 356.81 371.152C352.276 354.085 348.41 341.018 346.943 338.485C346.143 336.885 344.143 335.952 341.743 335.952C335.876 335.952 330.943 333.685 325.476 328.352L320.676 323.685L309.476 327.952C284.01 337.818 245.743 349.152 221.743 354.085C169.876 364.618 112.676 362.618 85.0762 349.285C82.1429 347.952 77.7429 346.085 75.4762 345.152C73.0762 344.352 71.0762 343.152 71.0762 342.485C71.0762 340.885 71.7429 341.018 77.3429 343.285C85.7429 346.752 107.61 350.752 125.076 351.818C162.943 354.352 211.876 347.285 255.076 333.285C259.076 331.952 267.876 329.285 274.41 327.152C281.076 325.152 287.076 323.018 287.743 322.485C288.543 321.952 291.21 320.885 293.743 320.218C298.143 318.885 313.743 313.152 324.41 309.152C326.943 308.085 333.61 305.018 339.076 302.352C344.543 299.685 349.476 297.418 350.01 297.418C350.543 297.285 351.876 298.618 352.943 300.218ZM247.343 366.085C265.743 379.018 266.01 404.885 247.876 416.885C226.81 431.018 199.476 409.018 206.143 383.152C209.876 368.885 220.41 360.752 234.143 361.685C239.876 361.952 243.076 363.018 247.343 366.085Z" fill="#2563eb"/>
</svg>
