<svg width="16" height="17" viewBox="0 0 16 17" fill="none" xmlns="http://www.w3.org/2000/svg">
<path d="M6.3833 13.6421C7.76953 13.6421 9.04785 13.1938 10.0938 12.4468L14.0283 16.3813C14.2109 16.564 14.4517 16.6553 14.709 16.6553C15.2485 16.6553 15.6304 16.2402 15.6304 15.709C15.6304 15.46 15.5474 15.2192 15.3647 15.0449L11.4551 11.127C12.2769 10.0479 12.7666 8.71143 12.7666 7.25879C12.7666 3.74756 9.89453 0.875488 6.3833 0.875488C2.88037 0.875488 0 3.73926 0 7.25879C0 10.77 2.87207 13.6421 6.3833 13.6421ZM6.3833 12.2642C3.64404 12.2642 1.37793 9.99805 1.37793 7.25879C1.37793 4.51953 3.64404 2.25342 6.3833 2.25342C9.12256 2.25342 11.3887 4.51953 11.3887 7.25879C11.3887 9.99805 9.12256 12.2642 6.3833 12.2642Z" fill="#3C3C43" fill-opacity="0.6"/>
</svg>
