<svg width="28" height="29" viewBox="0 0 28 29" fill="none" xmlns="http://www.w3.org/2000/svg">
<g clip-path="url(#clip0_130_307)">
<path fill-rule="evenodd" clip-rule="evenodd" d="M14 7.64795C10.134 7.64795 7 10.782 7 14.6479C7 18.5139 10.134 21.6479 14 21.6479C17.8659 21.6479 21 18.5139 21 14.6479C21 10.782 17.8659 7.64795 14 7.64795ZM10.5 14.6479C10.5 12.715 12.067 11.1479 14 11.1479C15.933 11.1479 17.5 12.715 17.5 14.6479C17.5 16.5809 15.933 18.1479 14 18.1479C12.067 18.1479 10.5 16.5809 10.5 14.6479Z" fill="#BB2C46"/>
<path fill-rule="evenodd" clip-rule="evenodd" d="M14 0.647949C6.26801 0.647949 0 6.91596 0 14.6479C0 22.38 6.26801 28.6479 14 28.6479C21.732 28.6479 28 22.38 28 14.6479C28 6.91596 21.732 0.647949 14 0.647949ZM3.5 14.6479C3.5 8.84896 8.20101 4.14795 14 4.14795C19.799 4.14795 24.5 8.84896 24.5 14.6479C24.5 20.4469 19.799 25.1479 14 25.1479C8.20101 25.1479 3.5 20.4469 3.5 14.6479Z" fill="#BB2C46"/>
</g>
<defs>
<clipPath id="clip0_130_307">
<rect width="28" height="28" fill="white" transform="translate(0 0.647949)"/>
</clipPath>
</defs>
</svg>
