<svg width="28" height="29" viewBox="0 0 28 29" fill="none" xmlns="http://www.w3.org/2000/svg">
<path d="M23.7967 5.69571C23.9755 5.64377 24.164 5.63415 24.3472 5.66761C24.5304 5.70107 24.7033 5.77671 24.8523 5.88852C25.0012 6.00034 25.1221 6.14527 25.2054 6.31187C25.2886 6.47846 25.332 6.66214 25.332 6.84838L25.3308 13.5124C25.3305 13.7352 25.2681 13.9536 25.1508 14.1431C25.0334 14.3326 24.8657 14.4857 24.6663 14.5853C24.467 14.6849 24.2438 14.7271 24.0218 14.7072C23.7999 14.6873 23.5878 14.606 23.4093 14.4725L21.4937 13.0317L16.617 19.5277C16.3328 19.9058 15.9192 20.1657 15.4553 20.2579C14.9915 20.35 14.5099 20.2678 14.1028 20.027L13.9278 19.9104L10.0347 16.9855L4.88034 23.8514C4.39034 24.5047 3.49784 24.6762 2.80717 24.2807L2.63917 24.1699C2.32775 23.9359 2.11233 23.5964 2.0333 23.2149C1.95426 22.8335 2.01703 22.4363 2.20984 22.0979L2.32067 21.9299L8.24384 14.0409C8.52789 13.6623 8.94172 13.402 9.40594 13.3098C9.87016 13.2177 10.3521 13.3002 10.7592 13.5415L10.933 13.6582L14.825 16.5819L18.934 11.1102L17.0125 9.66704C16.8462 9.5416 16.7153 9.37507 16.6328 9.1838C16.5502 8.99252 16.5188 8.78308 16.5417 8.576C16.5645 8.36893 16.6408 8.17135 16.763 8.00265C16.8852 7.83395 17.0492 7.69992 17.2388 7.61371L17.3987 7.55538L23.7978 5.69454L23.7967 5.69571Z" fill="#20A247"/>
</svg>
