<svg width="40" height="41" viewBox="0 0 40 41" fill="none" xmlns="http://www.w3.org/2000/svg">
<path d="M15.9471 0.774564C15.6392 0.880114 15.3962 1.0425 15.1612 1.30231C14.9749 1.50529 14.7724 1.6758 14.7157 1.68392C14.6509 1.68392 14.4969 1.70016 14.3592 1.71639C14.0514 1.76511 13.7192 1.65956 12.8605 1.24548C11.6939 0.685253 10.8757 0.758326 10.0817 1.50529C9.61996 1.93561 9.39312 2.39841 9.32831 3.04795C9.2635 3.61629 9.40933 4.07097 10.1789 5.71917C10.4787 6.37683 10.7055 6.92082 10.6731 6.93706C10.6407 6.94518 9.96831 6.661 9.17439 6.30376C7.53793 5.55679 7.18147 5.44312 6.77641 5.52431C6.31464 5.6055 5.76375 6.01147 5.55312 6.40119C5.19666 7.09944 5.39109 8.07375 5.99058 8.52843C6.13641 8.63398 6.68729 8.91815 7.21388 9.15361C7.73236 9.38906 8.14553 9.60016 8.12122 9.62452C8.07261 9.67324 7.92679 9.72195 6.46046 10.2416C4.92932 10.7775 4.54856 10.9723 4.27311 11.3458C3.5764 12.312 3.87615 13.5218 4.93742 14.0495C5.38299 14.2768 5.75565 14.3093 6.20932 14.1794C6.36324 14.1388 6.50097 14.1063 6.50907 14.1226C6.51717 14.1307 6.23362 14.4879 5.87717 14.9101C2.67716 18.7018 0.676143 22.6396 0.14956 26.1715C-0.00436437 27.1783 -0.0448708 28.859 0.0523446 29.9713C0.360193 33.4626 1.42956 35.7684 3.5764 37.5953C5.84476 39.5276 9.48224 40.4695 15.2909 40.6237C17.0164 40.6643 17.2028 40.6562 17.3081 40.5344C17.3972 40.4289 17.4215 39.9904 17.4296 38.4315L17.4377 36.4667L17.6564 36.0445C17.8995 35.5898 18.1911 35.3381 18.7987 35.0458C19.544 34.6967 19.4711 34.2339 18.6286 33.8604C17.5592 33.3895 17.4377 33.0485 17.4458 30.6614C17.4458 28.932 17.4458 28.9158 17.6645 28.4936C18.0453 27.7629 18.5071 27.5112 19.6088 27.4381C20.2083 27.3975 20.338 27.365 20.4352 27.2189C20.6134 26.9753 20.5891 26.9104 20.184 26.3907C18.1425 23.7763 17.4458 20.5449 18.2397 17.4027C18.8959 14.8289 20.4352 12.6692 22.6792 11.1997C23.3516 10.7531 23.4894 10.6232 23.6676 10.2659C23.7891 10.0142 23.8782 9.70571 23.8782 9.51085C23.8782 8.76388 23.4813 7.99256 22.9385 7.66779C22.7845 7.57848 22.663 7.46481 22.663 7.42421C22.663 7.37549 22.8332 6.98577 23.0357 6.55545C24.2023 4.11969 24.3157 3.79492 24.2671 3.06419C24.2185 2.41465 23.9187 1.78947 23.4732 1.4241C23.1167 1.13181 22.4362 0.863876 22.023 0.863876C21.6585 0.863876 20.978 1.09121 20.4757 1.38351C19.6655 1.85442 18.7906 1.83818 18.5071 1.35915C18.1587 0.766445 16.822 0.457914 15.9471 0.774564ZM8.80983 7.19687C9.58755 7.55412 10.2357 7.87077 10.2519 7.91948C10.2681 7.96008 10.187 8.12246 10.0736 8.28485C9.96831 8.44723 9.8468 8.69081 9.82249 8.82884C9.79009 8.96686 9.71717 9.09677 9.65236 9.12113C9.48224 9.18608 6.63869 7.85453 6.46046 7.61907C6.19312 7.28618 6.30653 6.80715 6.7116 6.57981C6.99514 6.40931 7.24628 6.48238 8.80983 7.19687ZM12.9415 8.38228C14.3025 8.57714 18.2721 8.62586 19.8276 8.45535C22.023 8.21989 22.023 8.21989 22.3228 8.40664C22.8007 8.70705 23.0033 9.2348 22.8575 9.77879C22.7845 10.0386 21.9258 10.5826 21.4154 10.6881C19.5683 11.0697 16.2711 11.1997 14.2296 10.9723C12.9253 10.8262 11.5886 10.5826 11.3293 10.4446C11.0701 10.3065 10.7784 9.90057 10.7217 9.59204C10.6407 9.17796 10.9324 8.6015 11.3212 8.39852C11.6615 8.21989 11.8397 8.21989 12.9415 8.38228ZM9.97642 10.3715C10.0412 10.5582 9.97642 10.6475 9.13388 11.4676C8.6397 11.9547 8.13742 12.4013 8.01591 12.4663C7.59464 12.6936 5.87717 13.2863 5.65033 13.2863C5.33438 13.2863 4.93742 12.9372 4.87261 12.6043C4.824 12.3282 4.97792 11.8979 5.17235 11.7761C5.42349 11.6219 9.60376 10.1279 9.74148 10.1442C9.83059 10.1523 9.93591 10.2497 9.97642 10.3715Z" fill="#278f91"/>
<path d="M35.8195 0.855722C35.6494 0.961272 35.4631 1.22921 35.1957 1.78131C34.7826 2.62571 34.2317 3.34021 33.6484 3.78676C33.2352 4.10341 33.0327 4.45254 33.0327 4.84226C33.0327 5.22387 33.1461 5.37813 33.9724 6.18193C34.6286 6.82335 34.7664 7.0101 35.0985 7.69211C35.3092 8.12243 35.5765 8.57711 35.7061 8.6989C36.0221 9.00743 36.4919 9.05614 36.897 8.82068C37.1724 8.66642 37.2859 8.51215 37.6504 7.78142C38.0312 7.00198 38.1608 6.83147 38.8899 6.11698C39.6595 5.36189 39.7001 5.30506 39.7406 4.93157C39.7892 4.42818 39.6757 4.23332 39.0438 3.70557C38.4362 3.19406 37.9097 2.48769 37.5289 1.64329C37.3264 1.19673 37.1805 0.98563 36.9861 0.863841C36.654 0.660861 36.1436 0.652741 35.8195 0.855722Z" fill="#278f91"/>
<path d="M27.3618 10.5257C23.6838 10.8992 20.6377 13.2863 19.3901 16.7775C18.7096 18.6531 18.6853 20.8128 19.3091 22.7939C19.9815 24.9292 21.5288 26.8779 23.4731 28.0308L23.9997 28.3474L21.5288 28.3637C19.8033 28.3799 19.0012 28.4124 18.8716 28.4855C18.7744 28.5342 18.6124 28.6966 18.5233 28.8427C18.3693 29.0944 18.3612 29.2243 18.3855 30.8238L18.4098 32.5451L18.7096 32.8211C19.0012 33.081 19.0417 33.0972 19.625 33.0972H20.2326V34.4775C20.2326 36.0445 20.3379 35.8658 19.4306 35.8983C19.0255 35.9146 18.9607 35.947 18.6772 36.2475L18.3693 36.5803V38.2123C18.3693 39.9823 18.4017 40.1447 18.823 40.4776L19.0417 40.6481H37.4884L37.7962 40.372L38.096 40.096L38.177 36.8726H38.501C39.3517 36.8645 39.4408 36.8402 39.7243 36.556L39.9998 36.2799V34.583C39.9998 33.0485 39.9836 32.8699 39.8377 32.6344C39.6109 32.2528 39.2706 32.1066 38.6792 32.131L38.177 32.1554L38.096 28.9401L37.7962 28.6641L37.4884 28.388H32.4251L32.7086 28.2094C34.2478 27.2595 35.22 26.3826 35.9572 25.2784C37.0914 23.5815 37.5451 22.2174 37.6261 20.2607C37.8124 16.0955 35.2119 12.3282 31.218 10.9642C30.1162 10.5826 28.5283 10.4039 27.3618 10.5257ZM29.6706 14.1307C32.3927 14.8776 34.1668 17.1591 34.1668 19.8953C34.1587 22.5828 32.4899 24.8156 29.8732 25.6356C29.0063 25.9117 27.5076 25.9117 26.6326 25.6356C23.9997 24.8156 22.339 22.599 22.339 19.9116C22.3471 16.9562 24.4453 14.4717 27.3213 14.017C27.9288 13.9277 29.1359 13.9764 29.6706 14.1307ZM26.8595 30.7264L26.8757 32.1229H25.9035V30.7589C25.9035 30.0038 25.9197 29.3705 25.944 29.3461C25.9683 29.3217 26.179 29.3136 26.4139 29.3217L26.8352 29.338L26.8595 30.7264ZM30.6023 32.1229H29.6301V30.7507C29.6301 29.9145 29.6625 29.3623 29.7111 29.3461C29.7516 29.3299 29.9704 29.338 30.1972 29.3461L30.6023 29.3786V32.1229ZM23.0681 32.1229H22.6306C22.3066 32.1229 22.185 32.0904 22.1445 31.993C22.0797 31.8225 22.0797 29.4841 22.1526 29.4192C22.1769 29.3867 22.3957 29.3623 22.6387 29.3623H23.0681V32.1229ZM34.3694 32.1229H33.9157C33.462 32.1229 33.4539 32.1229 33.4134 31.8549C33.3891 31.7169 33.381 31.3922 33.3891 31.1486C33.3972 30.905 33.4134 30.4016 33.4215 30.0281L33.4377 29.3623H34.3208L34.3694 32.1229ZM24.9476 34.3963C24.9476 35.1108 24.9557 35.7441 24.9638 35.7928C24.9719 35.8658 24.818 35.9064 24.5101 35.9227L24.0402 35.947V33.0972H24.9314L24.9476 34.3963ZM28.7228 34.4937L28.6985 35.8983H27.8073L27.783 34.4937L27.7668 33.0972H28.739L28.7228 34.4937ZM32.4656 35.947L31.5339 35.8983L31.5258 34.5587C31.5177 33.8198 31.5258 33.1946 31.5501 33.154C31.5663 33.1215 31.7851 33.0972 32.0281 33.0972H32.4656V35.947ZM36.2327 35.8983H35.3415L35.3172 34.4937L35.301 33.0891L36.2327 33.1378V35.8983ZM23.0519 38.326L23.0276 39.7144H22.6063C22.0797 39.7144 22.0878 39.7387 22.104 38.1311C22.1121 36.7752 22.0797 36.8402 22.7683 36.9051L23.0681 36.9295L23.0519 38.326ZM26.7785 36.897C26.8514 36.9538 26.8757 37.2948 26.8595 38.3341L26.8352 39.7062L25.9035 39.755V38.3422C25.9035 37.2867 25.9278 36.9132 26.0088 36.8889C26.1709 36.8158 26.665 36.832 26.7785 36.897ZM30.5861 38.2691L30.6023 39.6575L30.181 39.69C29.938 39.7062 29.7273 39.6819 29.6949 39.6332C29.6139 39.5276 29.6139 36.9619 29.6868 36.8808C29.7192 36.8483 29.9299 36.832 30.1567 36.8483L30.5618 36.8726L30.5861 38.2691ZM34.1344 36.8808L34.3694 36.9295L34.3532 39.7144H33.8914L33.4377 39.7225V38.326C33.4377 37.5628 33.462 36.9132 33.4944 36.8889C33.5592 36.8158 33.8266 36.8158 34.1344 36.8808Z" fill="#278f91"/>
<path d="M27.9045 16.1118C27.8397 16.1848 27.7668 16.4122 27.7506 16.607C27.7263 16.9318 27.702 16.9643 27.4104 17.0617C26.1304 17.5002 25.9278 19.3107 27.0701 20.0821C27.4104 20.3175 27.5319 20.35 27.9774 20.35C28.5688 20.35 29.0063 20.4962 29.1359 20.7397C29.298 21.0483 29.2412 21.4055 28.9901 21.6572C28.7714 21.8764 28.7066 21.8927 28.1476 21.8927C27.4833 21.8927 27.3536 21.8115 27.2483 21.3649C27.1673 21.032 27.0539 20.9183 26.7947 20.9183C26.3572 20.9183 26.179 21.4299 26.422 21.9982C26.5678 22.3555 26.8595 22.599 27.3293 22.7777C27.7101 22.9238 27.7263 22.9482 27.7506 23.2648C27.7749 23.6221 27.9855 23.8413 28.3015 23.8413C28.5445 23.8413 28.6823 23.6383 28.739 23.208C28.7714 22.8832 28.8119 22.8345 29.0468 22.7533C29.9785 22.4366 30.4564 21.3405 30.0352 20.4718C29.6868 19.7329 29.3709 19.5381 28.3906 19.4488C27.7344 19.3838 27.621 19.3513 27.4671 19.1727C27.1997 18.8642 27.2159 18.4501 27.5157 18.1497C27.7344 17.9386 27.8073 17.9142 28.2934 17.9142C28.9496 17.9142 29.1035 17.9873 29.2331 18.377C29.3628 18.7992 29.4519 18.8885 29.7192 18.8885C30.1729 18.8885 30.3268 18.4582 30.0757 17.8493C29.8569 17.3378 29.5815 17.1186 28.9658 16.9886C28.7633 16.9399 28.739 16.8993 28.739 16.6152C28.739 16.0712 28.2205 15.7545 27.9045 16.1118Z" fill="#278f91"/>
</svg>
