<svg width="41" height="41" viewBox="0 0 41 41" fill="none" xmlns="http://www.w3.org/2000/svg">
<path d="M18.6564 0.818519C18.0821 1.06208 17.7666 1.28941 17.4673 1.67099C17.3379 1.83336 16.6665 2.95375 15.9789 4.16344C15.2833 5.36501 14.4339 6.85074 14.078 7.45153L13.439 8.54756H10.9395C9.55626 8.55568 8.30246 8.58815 8.14877 8.62063C7.33178 8.81548 6.54715 9.44062 6.11844 10.2281L5.84341 10.7396L5.81914 16.3172C5.80297 21.3265 5.81105 21.9029 5.9243 22.0165C6.04564 22.1302 6.91116 22.1464 14.9354 22.1464C24.7069 22.1464 24.2378 22.1221 25.2812 22.6579C26.3571 23.2019 27.2873 24.5009 27.4815 25.7187C27.53 26.0353 27.5623 28.065 27.5623 30.7685C27.5623 35.1608 27.5704 35.2988 27.716 35.38C27.8212 35.4287 29.439 35.4612 32.4076 35.4612C37.439 35.4612 37.3015 35.4774 38.1508 34.9091C38.6847 34.5519 39.1377 33.9836 39.3884 33.3747C39.5664 32.9281 39.5745 32.7901 39.5988 30.4276L39.6311 27.9513L39.9628 27.789C40.1488 27.6997 40.3834 27.5048 40.4805 27.3506C40.6665 27.0826 40.6665 27.0258 40.6665 24.6876C40.6665 22.1383 40.6584 22.0653 40.2459 21.6837C40.1488 21.5863 39.9628 21.4726 39.8414 21.4239L39.6149 21.3346V16.9342L39.898 16.5932C40.5047 15.8463 40.7312 14.8152 40.4805 13.9384C40.4077 13.6948 39.7767 12.5095 39.0811 11.3079C36.7191 7.20797 35.9506 5.86837 35.6271 5.30006C34.6483 3.55453 34.163 2.80761 33.8232 2.50722C33.0952 1.86584 31.89 1.60604 31.0406 1.90643C30.7979 1.99574 29.9243 2.46662 29.0993 2.94563C28.2742 3.42463 27.4248 3.91988 27.1983 4.04978L26.7939 4.26898L24.2459 2.77513C20.5573 0.61555 20.711 0.688619 19.8374 0.656144C19.2145 0.631788 19.0446 0.656144 18.6564 0.818519ZM19.9749 3.09988C20.1528 3.35968 19.9749 3.71691 19.6756 3.71691C19.3278 3.71691 19.1822 3.28662 19.441 3.02682C19.5785 2.89692 19.8697 2.92939 19.9749 3.09988ZM32.1569 4.54502C32.2944 4.68304 32.2782 5.06462 32.1245 5.21076C31.9789 5.36501 31.8172 5.37313 31.5987 5.25947C31.3965 5.14581 31.3884 4.65056 31.5907 4.5369C31.7767 4.42324 32.0356 4.42324 32.1569 4.54502ZM23.2266 5.42184C23.5826 5.62481 23.8819 5.82778 23.898 5.86837C23.9061 5.91709 22.6523 6.68025 21.1073 7.56519C19.5623 8.45825 17.6533 9.5624 16.8687 10.0252C16.0841 10.4879 15.4127 10.8614 15.3884 10.8614C15.3561 10.8614 15.437 10.6909 15.5583 10.4717C15.6796 10.2606 16.3591 9.0834 17.0709 7.85747C17.7747 6.63154 18.4056 5.5761 18.4622 5.51115C18.5593 5.41373 18.6159 5.41372 18.7858 5.48679C19.1741 5.66541 19.8212 5.68976 20.3065 5.55174C20.6463 5.45432 20.8808 5.30818 21.2287 4.98343L21.6978 4.54502L22.1427 4.7967C22.3854 4.93472 22.8788 5.21888 23.2266 5.42184ZM30.7979 7.27292C31.3642 7.51648 31.898 7.55707 32.4157 7.41093C33.2165 7.17549 33.168 7.17549 33.3541 7.50836C33.443 7.67885 34.1063 8.83983 34.8263 10.082L36.1367 12.3471L35.7646 12.7206C35.5624 12.9236 35.344 13.1915 35.2792 13.3133L35.166 13.5406L26.1387 13.5568C21.172 13.5731 17.0952 13.5568 17.079 13.5325C17.0628 13.5 17.8394 13.021 18.8101 12.4608C19.7726 11.9006 22.5876 10.2768 25.0548 8.83983L29.5441 6.24184L29.989 6.68025C30.2317 6.92381 30.5957 7.19173 30.7979 7.27292ZM12.8404 9.54616C12.8404 9.58676 12.3389 10.4879 11.716 11.5596L10.5997 13.5L9.5239 13.5243C8.54513 13.5406 8.4238 13.5325 8.03553 13.3539C6.61995 12.7044 6.33684 11.0644 7.46121 10.0658C8.05979 9.53805 8.31055 9.48933 10.7211 9.48933C11.8859 9.48121 12.8404 9.51369 12.8404 9.54616ZM6.91925 15.9275C7.08103 16.2766 7.5421 16.7312 7.9061 16.8936C8.27011 17.056 8.43189 17.056 23.437 17.0235L38.6038 16.991V17.8841H7.92228L7.56637 17.6405C7.16192 17.3564 6.806 16.715 6.72511 16.1142C6.66849 15.7002 6.76555 15.6027 6.91925 15.9275ZM39.7039 22.528C39.8252 22.8609 39.7686 26.7335 39.6311 26.8716C39.5502 26.9527 38.9355 26.9771 36.8404 26.9771C34.3975 26.9771 34.1225 26.9609 33.7585 26.8228C32.9173 26.4981 32.254 25.5563 32.254 24.6876C32.254 23.6322 33.0386 22.6417 34.074 22.3819C34.2115 22.3494 35.5057 22.3251 36.9698 22.3169L39.6149 22.3088L39.7039 22.528ZM38.6443 31.8727L36.8485 31.9295C35.8536 31.9539 33.5725 31.9701 31.7686 31.9539L28.4926 31.9295V31.1177L29.3015 31.0689C29.7464 31.0446 32.0275 31.0202 34.3814 31.0121L38.6443 30.9959V31.8727Z" fill="#3471cb"/>
<path d="M34.43 23.8108C34.1954 23.9407 33.9528 24.3791 33.9528 24.6795C33.9528 25.1747 34.608 25.7106 35.069 25.5969C35.1823 25.5726 35.3926 25.4264 35.5463 25.2722C36.2986 24.5171 35.3683 23.2993 34.43 23.8108Z" fill="#3471cb"/>
<path d="M3.17409 23.1532C2.2115 23.3886 1.37025 24.0625 0.933441 24.9718L0.666504 25.5157V31.686C0.666504 37.499 0.674593 37.8806 0.820195 38.3027C1.13567 39.2364 1.74234 39.9427 2.55124 40.3162C2.9476 40.4948 3.15791 40.5273 4.29846 40.5841C6.01333 40.6734 21.617 40.6653 23.0973 40.5841C24.1569 40.5192 24.2944 40.4948 24.7636 40.2594C25.3865 39.9508 26.0336 39.2932 26.3329 38.6518L26.5513 38.181V25.5157L26.3329 25.0448C26.0578 24.4522 25.3137 23.6646 24.7798 23.4049C24.5533 23.2912 24.1003 23.1694 23.7606 23.1207C22.8142 22.9989 3.6837 23.0233 3.17409 23.1532ZM7.73628 26.7985C7.84144 26.8472 8.01131 27.0015 8.10028 27.1232C8.25398 27.3262 8.27015 27.4886 8.29442 28.5765C8.31869 29.5832 8.29442 29.8674 8.18926 30.1678C7.98704 30.6955 7.78481 30.7523 6.16702 30.7523H4.83233L4.57349 30.5169L4.30655 30.2814L4.2661 28.9905C4.21757 27.4723 4.25801 27.2125 4.58966 26.9121L4.83233 26.6929H6.19128C7.10534 26.6929 7.60686 26.7254 7.73628 26.7985ZM7.54214 35.6723C7.84144 35.794 7.84953 36.338 7.55023 36.5329C7.39654 36.6384 4.51686 36.6059 4.32273 36.5085C3.98299 36.3218 3.94254 36.1513 4.1933 35.8346L4.35508 35.6236H5.8839C6.72516 35.6236 7.46934 35.6479 7.54214 35.6723ZM15.4127 35.7535C15.5179 35.8265 15.5907 35.9564 15.5907 36.0944C15.5907 36.5491 15.5826 36.5572 13.7221 36.5816C11.805 36.614 11.6271 36.5734 11.6271 36.1107C11.6271 35.6641 11.797 35.6236 13.6089 35.6236C14.9436 35.6236 15.259 35.6479 15.4127 35.7535ZM22.8708 35.7291C23.0245 35.8103 23.073 35.8915 23.073 36.1107C23.073 36.5491 22.895 36.5978 21.2125 36.5978C20.4117 36.5978 19.7161 36.5653 19.6675 36.5329C19.4734 36.403 19.3844 36.1188 19.4815 35.9239C19.5381 35.8265 19.619 35.721 19.6675 35.6885C19.8293 35.5748 22.6443 35.6154 22.8708 35.7291Z" fill="#3471cb"/>
</svg>
