<svg width="41" height="42" viewBox="0 0 41 42" fill="none" xmlns="http://www.w3.org/2000/svg">
<path d="M19.0374 0.697219C15.1933 1.14505 11.7294 3.76572 10.2496 7.35669C8.11677 12.5234 10.076 18.3452 14.904 21.1732C15.681 21.6293 16.7062 22.0357 17.7643 22.3094C18.6158 22.5333 18.7729 22.5499 20.3271 22.5499C21.7738 22.5416 22.0797 22.5167 22.7658 22.3509C26.6017 21.4054 29.5034 18.7267 30.7435 15.0113C31.1734 13.7342 31.3139 12.6892 31.256 11.1882C31.1899 9.43 30.9336 8.39334 30.1648 6.79275C28.7181 3.7906 25.8908 1.5846 22.5674 0.871377C21.625 0.664047 19.9964 0.589407 19.0374 0.697219ZM22.3773 4.86872C24.783 5.69804 26.4116 7.35669 27.1143 9.69538C27.3127 10.3423 27.3375 10.591 27.3457 11.5614C27.3457 12.4653 27.3127 12.8136 27.1639 13.3693C26.5108 15.8241 24.5102 17.831 22.1128 18.453C19.7071 19.0833 17.2022 18.4116 15.4496 16.6617C14.6311 15.849 14.3087 15.3845 13.9036 14.4557C13.4242 13.3361 13.3167 12.8219 13.325 11.6443C13.325 10.4169 13.4903 9.66221 14.0111 8.57579C14.904 6.70152 16.5904 5.31655 18.6572 4.75261C19.1532 4.61992 19.4591 4.59504 20.4924 4.61992C21.5754 4.6448 21.8151 4.67797 22.3773 4.86872Z" fill="#3a68d3"/>
<path d="M20.013 7.23227C19.9221 7.33179 19.8725 7.53082 19.8725 7.79621V8.21087L19.4839 8.31868C18.3596 8.6587 17.814 9.96074 18.3514 11.0472C18.7151 11.777 19.3765 12.1419 20.3437 12.1419C20.972 12.1419 21.2779 12.2911 21.5011 12.6975C21.6333 12.9463 21.6333 13.0044 21.5259 13.3195C21.344 13.8503 20.9885 14.0493 20.2528 14.0493C19.5005 14.0493 19.2855 13.9332 19.1285 13.4688C18.9548 12.9463 18.9052 12.8883 18.6324 12.8883C18.2604 12.8883 18.1116 13.0956 18.1529 13.5683C18.2274 14.2981 18.773 14.8538 19.5666 15.003L19.8725 15.0611V15.5006C19.8725 15.8738 19.9055 15.9568 20.0792 16.0729C20.261 16.189 20.3272 16.1973 20.5173 16.106C20.7157 16.0065 20.7488 15.9402 20.7818 15.5089C20.8232 15.0279 20.8314 15.0113 21.1043 14.9367C21.4515 14.8455 22.0384 14.4557 22.2038 14.1986C22.5592 13.6512 22.6254 12.8634 22.3691 12.2828C22.0384 11.5365 21.3771 11.1467 20.4346 11.1467C19.5501 11.1467 19.1285 10.8315 19.1285 10.1681C19.1285 9.86122 19.1781 9.75341 19.4095 9.5212C19.6823 9.24752 19.7071 9.23923 20.3933 9.23923C20.7818 9.23923 21.1621 9.26411 21.2365 9.28899C21.3936 9.35534 21.6085 9.74512 21.6085 9.97733C21.6085 10.0686 21.6995 10.2095 21.8152 10.2842C22.0798 10.4583 22.4022 10.3422 22.5179 10.0271C22.6006 9.80317 22.46 9.20606 22.2286 8.85774C22.0798 8.62553 21.344 8.24404 21.0547 8.24404C20.9472 8.24404 20.8645 8.21916 20.8562 8.1777C20.8562 8.14452 20.8397 7.96207 20.8232 7.76304C20.7818 7.16592 20.3354 6.87566 20.013 7.23227Z" fill="#3a68d3"/>
<path d="M36.8611 23.2382C36.3651 23.4124 35.6955 23.8436 33.8189 25.1871C33.0335 25.7511 32.3556 26.2321 32.306 26.2653C32.2482 26.2984 32.1076 26.1491 31.9588 25.9086C31.6364 25.3945 31.1404 25.0296 30.5782 24.9052C30.1483 24.8139 30.0905 24.8222 29.0406 25.154C27.2053 25.7345 26.2711 25.7013 24.1879 24.9964C23.5348 24.7725 22.6254 24.5071 22.1624 24.4159C20.5504 24.0758 18.6159 24.109 16.731 24.5154C15.4249 24.7974 14.4246 25.1623 12.0685 26.2072C11.4898 26.4726 11.4071 26.4892 11.2831 26.3731C11.0764 26.1906 10.5721 25.9916 10.2911 25.9916C10.1588 25.9916 9.61318 26.174 9.06756 26.3979C5.73596 27.7746 2.98306 28.944 2.55318 29.1679C1.60248 29.6738 0.817115 30.6773 0.461635 31.83C0.271495 32.452 0.296296 33.4638 0.511237 34.1687C0.759247 34.9814 2.54491 39.269 2.81772 39.7003C3.60309 40.9443 5.17381 41.7321 6.68667 41.6409C7.46376 41.5994 7.6291 41.5414 9.81985 40.6126C10.7292 40.2228 11.9693 39.7086 12.5562 39.4598C13.1514 39.211 13.912 38.8876 14.2509 38.7466C14.5899 38.5973 14.9867 38.39 15.1355 38.2904C15.4249 38.0665 15.6563 37.6436 15.6563 37.3201C15.6563 37.1377 15.7225 37.0713 16.0118 36.9469C16.7145 36.6401 17.2353 36.582 18.2356 36.6981C21.1869 37.0216 25.957 36.2088 29.0819 34.857C31.0164 34.0111 35.2573 31.2163 38.4732 28.6537C40.0026 27.4346 40.325 26.9453 40.3333 25.8672C40.3333 25.3032 40.3002 25.1291 40.1018 24.731C39.4818 23.4621 38.0598 22.807 36.8611 23.2382ZM10.63 27.1277C10.7871 27.3102 10.9276 27.6502 13.9699 35.2219C14.656 36.9304 14.7635 37.345 14.5651 37.4943C14.5072 37.5358 14.1517 37.7099 13.7797 37.8675C13.0274 38.2075 13.044 38.2075 12.8125 37.6021C12.7298 37.3948 11.7709 35.0727 10.6796 32.4354C9.58837 29.7982 8.70381 27.6336 8.72034 27.6171C8.81955 27.5424 10.2663 26.9868 10.3737 26.9868C10.4481 26.9868 10.5639 27.0531 10.63 27.1277ZM32.1076 27.8576C32.2564 28.1395 32.0332 28.5459 31.3967 29.1347C30.7684 29.7318 29.9003 30.2626 29.2059 30.4782C28.1395 30.8099 25.4114 30.8597 25.0394 30.5529C24.874 30.4202 24.8823 30.0221 25.0476 29.8894C25.1386 29.8065 25.6098 29.7733 26.8002 29.765C28.2304 29.7567 28.4949 29.7318 28.9744 29.5743C29.6606 29.3503 30.5452 28.7283 31.099 28.0898C31.4628 27.6585 31.5537 27.6005 31.7604 27.6336C31.9092 27.6502 32.0497 27.7414 32.1076 27.8576Z" fill="#3a68d3"/>
</svg>
